<?xml version="1.0" encoding="utf-8"?>
<!-- Generator: Adobe Illustrator 25.1.0, SVG Export Plug-In . SVG Version: 6.00 Build 0)  -->
<svg version="1.1" id="Layer_1" xmlns="http://www.w3.org/2000/svg" xmlns:xlink="http://www.w3.org/1999/xlink" x="0px" y="0px"
	 viewBox="0 0 512 512" style="enable-background:new 0 0 512 512;" xml:space="preserve">
<style type="text/css">
	.st0{fill:#435B8F;}
	.st1{fill:#609BB8;}
	.st2{fill:#FFD87D;}
	.st3{fill:#79AAC2;}
	.st4{fill:#9790CC;}
</style>
<circle class="st0" cx="256" cy="256" r="256"/>
<path class="st1" d="M143.7,283.6c0,0,45.2,38.3,107.3,38.3c62.1,0,102.9-35.7,102.9-35.7l8.1-10v-68.8l-8.1-3.9l-102.9,36l-107-36
	l-4,3.9V276L143.7,283.6z"/>
<path class="st2" d="M357.7,277.4c-23.4,22.1-62.5,36.6-106.7,36.6s-83.3-14.5-106.7-36.6c-2.7-2.6-4.3-6.2-4.3-10v36.7
	c0,3.8,1.5,7.3,4.3,9.9c6.6,6.3,14.5,11.9,23.4,16.8l18.9,8.6c19,7.1,41,11.2,64.4,11.2c44.2,0,83.3-14.5,106.7-36.6
	c2.7-2.6,4.3-6.2,4.3-10v-36.7C362,271.2,360.4,274.8,357.7,277.4L357.7,277.4z"/>
<path class="st3" d="M413.7,183.3l-153.1-55.9c-6.1-2.2-12.8-2.2-18.9,0L88.6,183.3c-2.5,0.9-2.5,4.4,0,5.3l153.1,55.9
	c6.1,2.2,12.8,2.2,18.9,0l153.1-55.9C416.2,187.7,416.2,184.2,413.7,183.3z"/>
<g>
	<path class="st4" d="M169.6,317.4c-3.8-0.4-6.6-3.3-6.6-6.5v-94.7c0-5.4,3.5-10.3,9.2-12.7l66-28.5c4.4-1.9,9.9,0.3,10.8,4.9
		c0.5,2.8-1.3,5.5-4.3,6.8L178.8,215c-0.5,0.2-0.8,0.7-0.8,1.1V311C178,314.8,174.1,317.9,169.6,317.4z"/>
</g>
<path class="st4" d="M232,178.5v5.6c0,1.4,0.9,2.6,2.2,3.1l7.4,2.7c6.1,2.2,12.8,2.2,18.9,0l7.3-2.7c1.3-0.5,2.2-1.7,2.2-3.1v-5.8
	c0-11.8-10.7-21-22.9-18.6C238.2,161.4,232,169.5,232,178.5z"/>
<circle class="st4" cx="170.3" cy="314.1" r="14.1"/>
</svg>
