<svg id="Layer_1" data-name="Layer 1" xmlns="http://www.w3.org/2000/svg" xmlns:xlink="http://www.w3.org/1999/xlink" viewBox="0 0 1920 900.96"><defs><style>.cls-1{fill:#d6dee5;opacity:0.75;}.cls-2{fill:#c2d0f2;}.cls-2,.cls-3{opacity:0.8;}.cls-3{fill:url(#linear-gradient);}.cls-4{fill:url(#linear-gradient-2);}</style><linearGradient id="linear-gradient" x1="959.5" y1="1080" x2="959.5" y2="626.19" gradientUnits="userSpaceOnUse"><stop offset="0" stop-color="#8383db"/><stop offset="0.06" stop-color="#8787dd" stop-opacity="0.99"/><stop offset="0.99" stop-color="#bccaf7" stop-opacity="0.8"/></linearGradient><linearGradient id="linear-gradient-2" x1="1030.63" y1="440.74" x2="1542.63" y2="440.74" gradientTransform="translate(1448.32 1607.34) rotate(-115.41)" gradientUnits="userSpaceOnUse"><stop offset="0.02" stop-color="#aa6d4f"/><stop offset="0.38" stop-color="#bf9172" stop-opacity="0.92"/><stop offset="0.99" stop-color="#dec6a6" stop-opacity="0.8"/></linearGradient></defs><path class="cls-1" d="M0,361.19s881,.31,948.5.31c92.47,0,250,108,341,108s222-108.31,317.64-108.31H1920V1081H0Z" transform="translate(0 -180.04)"/><path class="cls-2" d="M0,488.19s881,.26,948.5.26c92.47,0,250,88.94,341,88.94s222-89.2,317.64-89.2H1920V1081H0Z" transform="translate(0 -180.04)"/><path class="cls-3" d="M0,626.19s880.57.2,948,.2c92.41,0,249.87,68.09,340.82,68.09s221.88-68.29,317.47-68.29H1919V1080H0Z" transform="translate(0 -180.04)"/><path d="M329.08,395H346.7c13.82,0,23.15,4.65,23.15,18.17,0,13-9.28,19.05-22.77,19.05H336.93v24.47h-7.85Zm17,30.85c10.78,0,15.93-3.9,15.93-12.68s-5.47-11.8-16.31-11.8h-8.78v24.48Z" transform="translate(0 -180.04)"/><path d="M388.1,425.59c0-19.75,10.88-31.75,26.37-31.75s26.36,12,26.36,31.75-10.87,32.2-26.36,32.2S388.1,445.35,388.1,425.59Zm44.63,0c0-15.36-7.25-24.84-18.26-24.84s-18.26,9.48-18.26,24.84,7.24,25.3,18.26,25.3S432.73,441,432.73,425.59Z" transform="translate(0 -180.04)"/><path d="M463.5,395h7.85v55h26.92v6.64H463.5Z" transform="translate(0 -180.04)"/><path d="M521.44,432.76,502.9,395h8.38l8,17.42c2,4.55,3.84,8.83,6,13.45h.38c2.13-4.62,4.26-8.9,6.16-13.45l8-17.42h8.12l-18.54,37.79v23.9h-7.85Z" transform="translate(0 -180.04)"/><path d="M564.55,395h7.85v55h26.92v6.64H564.55Z" transform="translate(0 -180.04)"/><path d="M619.63,395h35.56v6.65H627.48V421h23.38v6.64H627.48V450h28.65v6.64h-36.5Z" transform="translate(0 -180.04)"/><path d="M691.26,395h8.85L721,456.66h-8.31l-10.76-34.45c-2.22-6.9-4.2-13.67-6.18-20.79h-.37c-1.91,7.15-3.89,13.89-6.11,20.79l-10.87,34.45h-8Zm-9.9,36.64h28.4v6.26h-28.4Z" transform="translate(0 -180.04)"/><path d="M738.73,395h19.32c12.57,0,21.59,4.51,21.59,17.36,0,12.33-9,18.26-21.59,18.26H746.58v26.07h-7.85Zm18.19,29.25c9.6,0,14.89-3.89,14.89-11.89s-5.29-11-14.89-11H746.58v22.88Zm-.42,4.22,6.15-4.06,18.83,32.28h-8.9Z" transform="translate(0 -180.04)"/><path d="M801.61,395h8.11l22.33,38.79,6.66,12.77h.37c-.39-6.23-1-13.18-1-19.63V395h7.45v61.69h-8.11l-22.32-38.81-6.66-12.74h-.38c.4,6.24,1,12.82,1,19.27v32.28h-7.46Z" transform="translate(0 -180.04)"/><path d="M323.51,542.71h2.3v31H341v2H323.51Z" transform="translate(0 -180.04)"/><path d="M346.59,563.7c0-7.83,5.09-12.65,10.47-12.65,5.69,0,9.19,4.05,9.19,11.11a10.89,10.89,0,0,1-.12,1.8H348.86c.08,6.07,3.63,10.4,9,10.4a10.75,10.75,0,0,0,6.45-2.14l.91,1.68a13.14,13.14,0,0,1-7.57,2.37C351.56,576.27,346.59,571.55,346.59,563.7Zm17.58-1.56c0-6.13-2.78-9.18-7.09-9.18-4.06,0-7.73,3.44-8.23,9.18Z" transform="translate(0 -180.04)"/><path d="M372.79,569.69c0-5.34,4.81-7.88,15.49-9.06.07-3.69-.94-7.64-5.66-7.64a13.16,13.16,0,0,0-7.65,2.82l-1-1.64a16.12,16.12,0,0,1,8.93-3.12c5.69,0,7.61,4.13,7.61,9.27v15.35h-1.87l-.24-3.13h-.11c-2.45,2-5.37,3.73-8.52,3.73C376,576.27,372.79,574.2,372.79,569.69Zm15.49.79v-8.17c-9.86,1.14-13.23,3.43-13.23,7.26,0,3.45,2.33,4.78,5.09,4.78S385.31,573,388.28,570.48Z" transform="translate(0 -180.04)"/><path d="M401.56,551.65h1.87l.24,4.48h.11c1.62-3,4-5.08,6.83-5.08a5,5,0,0,1,2.38.5l-.5,2a5.37,5.37,0,0,0-2.17-.4c-2.16,0-4.72,1.64-6.55,6.18v16.34h-2.21Z" transform="translate(0 -180.04)"/><path d="M419.91,551.65h1.87l.24,3.72h.11c2.45-2.44,4.95-4.32,8.26-4.32,5,0,7.26,3,7.26,9.21v15.41h-2.21V560.55c0-5.09-1.61-7.51-5.47-7.51-2.86,0-4.93,1.51-7.85,4.51v18.12h-2.21Z" transform="translate(0 -180.04)"/><path d="M463.71,573.23h-.11l-.25,2.44h-1.84v-36h2.21v10.44l-.11,4.68c2.42-2,5.34-3.76,8.26-3.76,6.44,0,9.62,4.82,9.62,12.25,0,8.16-4.92,13-10.58,13A12.14,12.14,0,0,1,463.71,573.23Zm15.46-9.92c0-5.9-2.1-10.3-7.64-10.3-2.38,0-5,1.4-7.81,4v14.24a11.45,11.45,0,0,0,7.07,3.09C475.67,574.3,479.17,569.82,479.17,563.31Z" transform="translate(0 -180.04)"/><path d="M489.09,563.7c0-7.83,5.09-12.65,10.47-12.65,5.69,0,9.19,4.05,9.19,11.11a9.92,9.92,0,0,1-.13,1.8H491.36c.08,6.07,3.63,10.4,9,10.4a10.75,10.75,0,0,0,6.45-2.14l.91,1.68a13.14,13.14,0,0,1-7.57,2.37C494.06,576.27,489.09,571.55,489.09,563.7Zm17.58-1.56c0-6.13-2.78-9.18-7.09-9.18-4.06,0-7.73,3.44-8.23,9.18Z" transform="translate(0 -180.04)"/><path d="M517.82,569V553.58h-3.75v-1.72l3.8-.21.28-6.95H520v6.95h7v1.93h-7V569.2c0,3.07.77,5.13,4.08,5.13a8.65,8.65,0,0,0,3-.75l.58,1.79a13.85,13.85,0,0,1-3.92.9C519.17,576.27,517.82,573.33,517.82,569Z" transform="translate(0 -180.04)"/><path d="M534.92,569V553.58h-3.75v-1.72l3.8-.21.28-6.95h1.88v6.95h7v1.93h-7V569.2c0,3.07.77,5.13,4.08,5.13a8.65,8.65,0,0,0,3-.75l.58,1.79a13.85,13.85,0,0,1-3.92.9C536.27,576.27,534.92,573.33,534.92,569Z" transform="translate(0 -180.04)"/><path d="M549.89,563.7c0-7.83,5.09-12.65,10.47-12.65,5.69,0,9.19,4.05,9.19,11.11a9.92,9.92,0,0,1-.13,1.8H552.16c.08,6.07,3.63,10.4,9,10.4a10.75,10.75,0,0,0,6.45-2.14l.91,1.68a13.14,13.14,0,0,1-7.57,2.37C554.86,576.27,549.89,571.55,549.89,563.7Zm17.58-1.56c0-6.13-2.78-9.18-7.09-9.18-4.06,0-7.73,3.44-8.23,9.18Z" transform="translate(0 -180.04)"/><path d="M578.56,551.65h1.87l.24,4.48h.11c1.62-3,4-5.08,6.83-5.08a5,5,0,0,1,2.38.5l-.5,2a5.37,5.37,0,0,0-2.17-.4c-2.16,0-4.72,1.64-6.55,6.18v16.34h-2.21Z" transform="translate(0 -180.04)"/><path d="M592.74,581.91a6.8,6.8,0,0,0,3.84-6.2l-.63-3,1.79,2.35a1.84,1.84,0,0,1-1.73.81,2,2,0,0,1-2.12-2.09,2,2,0,0,1,2.14-2.09c1.54,0,2.55,1.37,2.55,3.58a9.24,9.24,0,0,1-5.13,8.15Z" transform="translate(0 -180.04)"/><path d="M620.91,572.45V539.69h2.21v33.06c0,1.06.44,1.56,1,1.56a3.78,3.78,0,0,0,.9-.1l.37,1.81a5.28,5.28,0,0,1-1.59.25C621.91,576.27,620.91,575.08,620.91,572.45Z" transform="translate(0 -180.04)"/><path d="M633.24,563.7c0-7.83,5.09-12.65,10.47-12.65,5.69,0,9.19,4.05,9.19,11.11a9.92,9.92,0,0,1-.13,1.8H635.51c.08,6.07,3.63,10.4,9,10.4a10.75,10.75,0,0,0,6.45-2.14l.91,1.68a13.14,13.14,0,0,1-7.57,2.37C638.21,576.27,633.24,571.55,633.24,563.7Zm17.58-1.56c0-6.13-2.78-9.18-7.09-9.18-4.06,0-7.73,3.44-8.23,9.18Z" transform="translate(0 -180.04)"/><path d="M659.44,569.69c0-5.34,4.81-7.88,15.49-9.06.07-3.69-.94-7.64-5.66-7.64a13.16,13.16,0,0,0-7.65,2.82l-1-1.64a16.12,16.12,0,0,1,8.93-3.12c5.69,0,7.61,4.13,7.61,9.27v15.35h-1.87l-.24-3.13h-.11c-2.45,2-5.37,3.73-8.52,3.73C662.6,576.27,659.44,574.2,659.44,569.69Zm15.49.79v-8.17c-9.86,1.14-13.23,3.43-13.23,7.26,0,3.45,2.33,4.78,5.09,4.78S672,573,674.93,570.48Z" transform="translate(0 -180.04)"/><path d="M688.21,551.65h1.87l.24,4.48h.11c1.62-3,4-5.08,6.83-5.08a5,5,0,0,1,2.38.5l-.5,2a5.37,5.37,0,0,0-2.17-.4c-2.16,0-4.72,1.64-6.55,6.18v16.34h-2.21Z" transform="translate(0 -180.04)"/><path d="M706.56,551.65h1.87l.24,3.72h.11c2.45-2.44,5-4.32,8.26-4.32,5,0,7.26,3,7.26,9.21v15.41h-2.21V560.55c0-5.09-1.61-7.51-5.47-7.51-2.86,0-4.93,1.51-7.85,4.51v18.12h-2.21Z" transform="translate(0 -180.04)"/><path d="M748.16,551.65H750l.24,3.73h.11c2.18-2.45,4.91-4.33,7.59-4.33,3.85,0,5.77,1.94,6.63,4.9,2.72-3,5.38-4.9,8.15-4.9,4.78,0,7.18,3,7.18,9.21v15.41h-2.21V560.55c0-5.09-1.7-7.51-5.38-7.51-2.26,0-4.54,1.5-7.19,4.51v18.12h-2.21V560.55c0-5.09-1.7-7.51-5.38-7.51-2.17,0-4.54,1.5-7.19,4.51v18.12h-2.21Z" transform="translate(0 -180.04)"/><path d="M789.24,563.7c0-8,5-12.65,10.78-12.65s10.78,4.62,10.78,12.65-5,12.57-10.78,12.57S789.24,571.64,789.24,563.7Zm19.24,0c0-6.32-3.61-10.7-8.46-10.7s-8.46,4.38-8.46,10.7,3.61,10.61,8.46,10.61S808.48,570,808.48,563.7Z" transform="translate(0 -180.04)"/><path d="M820.5,551.65h1.88l.23,4.48h.11c1.63-3,4-5.08,6.84-5.08a5,5,0,0,1,2.38.5l-.5,2a5.37,5.37,0,0,0-2.17-.4c-2.17,0-4.73,1.64-6.56,6.18v16.34H820.5Z" transform="translate(0 -180.04)"/><path d="M836.33,563.7c0-7.83,5.09-12.65,10.47-12.65,5.7,0,9.2,4.05,9.2,11.11a9.92,9.92,0,0,1-.13,1.8H838.6c.08,6.07,3.63,10.4,9,10.4a10.75,10.75,0,0,0,6.45-2.14l.91,1.68a13.14,13.14,0,0,1-7.57,2.37C841.3,576.27,836.33,571.55,836.33,563.7Zm17.59-1.56c0-6.13-2.78-9.18-7.1-9.18-4.06,0-7.73,3.44-8.23,9.18Z" transform="translate(0 -180.04)"/><circle class="cls-4" cx="1294.3" cy="256.06" r="256"/></svg>